inDegrees=no
num_controls=7
num_derivatives=13
num_iterations=188
num_multipliers=7
num_parameters=0
num_slacks=7
num_states=26
objective=5.142396
objective_accelerations=0.356069
objective_balance=0.010958
objective_effort=0.342304
objective_height=4.357224
objective_ligament=0.075841
solver_duration=1609.815024
status=Solve_Succeeded
success=true
DataType=double
version=3
OpenSimVersion=4.4-2022-07-23-0e9fedc
endheader
time	/jointset/ground_pelvis/pelvis_tilt/value	/jointset/ground_pelvis/pelvis_tx/value	/jointset/ground_pelvis/pelvis_ty/value	/jointset/hip_r/hip_flexion_r/value	/jointset/hip_r/hip_adduction_r/value	/jointset/hip_r/hip_rotation_r/value	/jointset/back/lumbar_extension/value	/jointset/patellofemoral_r/patellar_flexion_r/value	/jointset/knee_r/knee_flexion_r/value	/jointset/knee_r/knee_adduction_r/value	/jointset/knee_r/knee_rotation_r/value	/jointset/ankle_r/ankle_angle_r/value	/jointset/subtalar_r/subtalar_angle_r/value	/jointset/ground_pelvis/pelvis_tilt/speed	/jointset/ground_pelvis/pelvis_tx/speed	/jointset/ground_pelvis/pelvis_ty/speed	/jointset/hip_r/hip_flexion_r/speed	/jointset/hip_r/hip_adduction_r/speed	/jointset/hip_r/hip_rotation_r/speed	/jointset/back/lumbar_extension/speed	/jointset/patellofemoral_r/patellar_flexion_r/speed	/jointset/knee_r/knee_flexion_r/speed	/jointset/knee_r/knee_adduction_r/speed	/jointset/knee_r/knee_rotation_r/speed	/jointset/ankle_r/ankle_angle_r/speed	/jointset/subtalar_r/subtalar_angle_r/speed	/forceset/tau_hip_flexion_r	/forceset/tau_hip_adduction_r	/forceset/tau_hip_rotation_r	/forceset/tau_knee_flexion_r	/forceset/tau_ankle_angle_r	/forceset/tau_subtalar_angle_r	/forceset/tau_lumbar_extension	lambda_cid13_p0	lambda_cid14_p0	lambda_cid14_p1	lambda_cid14_p2	lambda_cid14_p3	lambda_cid14_p4	lambda_cid14_p5	/jointset/ground_pelvis/pelvis_tilt/accel	/jointset/ground_pelvis/pelvis_tx/accel	/jointset/ground_pelvis/pelvis_ty/accel	/jointset/hip_r/hip_flexion_r/accel	/jointset/hip_r/hip_adduction_r/accel	/jointset/hip_r/hip_rotation_r/accel	/jointset/back/lumbar_extension/accel	/jointset/patellofemoral_r/patellar_flexion_r/accel	/jointset/knee_r/knee_flexion_r/accel	/jointset/knee_r/knee_adduction_r/accel	/jointset/knee_r/knee_rotation_r/accel	/jointset/ankle_r/ankle_angle_r/accel	/jointset/subtalar_r/subtalar_angle_r/accel	gamma_cid13_p0	gamma_cid14_p0	gamma_cid14_p1	gamma_cid14_p2	gamma_cid14_p3	gamma_cid14_p4	gamma_cid14_p5
1.5	0.008023657375011182	0.07452781816342495	0.8608523950656664	0.5597976887508591	-0.2481562376589986	-0.1008362018718466	-0.597495081414996	0.7912397806315821	0.7912397806315822	0.06584505218964846	0.1745142610332539	0.2948175905940113	0.09947387700704731	0.2171111183107211	0.1518827748405072	0.3203161673991043	-1.341229433717517	0.051405521124726	-0.3947835792083721	0.8011689561418714	-1.574883638554302	-1.574883638554295	0.1039836540769487	0.0005949297047594102	-0.5161349267403276	-0.0955298124079772	-0.1005738425397886	-0.003685943814113156	0.02838184808081016	-0.2888499524403657	-0.01676042428777936	-0.01317276270041472	0.1749018825394479	-16.47653190334346	-48.61057236601134	-11.98536206095189	-0.2338039571796289	1.985868524463393	-641.1684757066716	62.5227564963801	-0.1189720295585197	0.2838402370520112	-0.3220863864210874	-0.5544792037740698	0.05562817997472842	-0.06031890058635631	1.296860627947505	-1.053087889082393	-1.05308788908239	0.5916686204922813	-0.02621673739332227	-0.4544610379816923	-0.01827322241962653	7.143276531381249e-08	2.986652336772392e-08	-6.123641637495418e-07	4.231020275711462e-07	5.177147732731774e-08	8.376562123350117e-08	-5.300801935184473e-07
1.51	0.01018861521850625	0.07606064515355143	0.8640388077449361	0.5463592682526288	-0.2476399376022295	-0.1047868420218792	-0.5894197404534601	0.7754403867984471	0.7754403867984517	0.06691528641412914	0.1745196202472569	0.2896340630699766	0.09851703426131246	0.2158531677179985	0.1546614716247683	0.3169016688087773	-1.346272162881122	0.05184000019538428	-0.3953129515743263	0.813785748615123	-1.584769134874868	-1.584769134874864	0.1100650883383635	0.0004788336609653731	-0.5204963470170534	-0.09583473540866916	-0.09536129803129803	-0.004848294244338656	0.02771526814047685	-0.2859364659405764	-0.01418442018488986	-0.01389831834338272	0.1698439376295276	-17.25795523653001	-47.6415319356302	-12.05211614293611	-0.3130359602286782	1.775575203709173	-638.2184868616564	62.21756675515817	-0.1332949484972868	0.2717212625310567	-0.3608153545966847	-0.45178944303652	0.03520997316080517	-0.04441740359994224	1.227065424497892	-0.9223974474559191	-0.9223974474564144	0.6165912061026425	-0.003943080269890556	-0.4158304269797318	-0.03604401396712159	7.683464584561055e-08	3.67748312778587e-08	-6.305219083040865e-07	4.676656493452874e-07	4.927390778248391e-08	9.839956232013397e-08	-5.581863304512658e-07
1.52	0.01234017588120097	0.07762062648420405	0.8671891386864511	0.5328758965286849	-0.2471197223142427	-0.1087418100953732	-0.5812216361936948	0.7595489146133301	0.7595489146133311	0.06804637705666074	0.1745238910923285	0.2844091517622829	0.09755725385055607	0.2144316821505494	0.157313642945736	0.3130998198481272	-1.350219678860036	0.05218856736802421	-0.3956491639002796	0.8257216157877321	-1.593299308951921	-1.593299308951921	0.1161549376852414	0.0003772559212747647	-0.5244116834722476	-0.09611734541228731	-0.09014875352281805	-0.006010644674578591	0.02704868820007673	-0.2830229794407896	-0.01160841608200443	-0.01462387398637272	0.1647859927196013	-18.03409565692109	-46.6750824231838	-12.11640938137389	-0.3959897919495343	1.5565845450816	-635.3120289538094	61.95026702947705	-0.1516790245038194	0.2585351443933267	-0.3995564604857122	-0.3354365668357054	0.03844580037106472	-0.02168689258620476	1.160675567819011	-0.7820234403798286	-0.7820234403798276	0.5933516375848937	-0.02331307657264505	-0.3652442736754133	-0.0138106230048649	8.237360491254802e-08	4.367446230593871e-08	-6.532756900574246e-07	5.12255083671832e-07	4.713576096430466e-08	1.14476289114547e-07	-5.900227022031711e-07
1.53	0.01447676080414447	0.07920646767826825	0.870299568713035	0.5193584609212467	-0.246596496021261	-0.1126991339482235	-0.5729077431980837	0.743578933764754	0.7435789337647556	0.06923850143353563	0.1745272048805387	0.2791473180105131	0.09659469744794379	0.2128573299451497	0.1598301604357752	0.3089254120869084	-1.353078260436829	0.05244237011211371	-0.3957838833111265	0.8369336051570474	-1.600461227613424	-1.600461227613423	0.1222656797686847	0.0002852918394978465	-0.5278764670203729	-0.09638826123596353	-0.08486068495367986	-0.007246964171712618	0.02638049529476599	-0.2802781367571668	-0.00890231383557465	-0.01542083777487648	0.1596763990263554	-18.80428428740299	-45.68128956086609	-12.21181676570168	-0.4683980255724453	1.339199455288474	-632.5408925742443	61.66290890439903	-0.1645044702675625	0.2445536244293416	-0.4354706385261591	-0.2326854609233272	0.01673257500102917	-0.004486952066160023	1.082953894886053	-0.6479493268944917	-0.6479493268945342	0.6192189806176009	-0.002078179589005309	-0.325286063018796	-0.03292158050293307	8.805820992307115e-08	5.056487414683555e-08	-6.809127613344804e-07	5.568719438353052e-07	4.537950079319591e-08	1.320859757234765e-07	-6.258224484503561e-07
